<svg width="276" height="381" viewBox="0 0 276 381" fill="none" xmlns="http://www.w3.org/2000/svg">
<path d="M0.368814 236.326L116.198 0.408341L185.185 34.1897L69.3551 270.108L0.368814 236.326Z" fill="white"/>
<path d="M27.2139 229.055L41.3273 200.22L87.7915 222.903L73.678 251.738L27.2139 229.055Z" fill="#505F98"/>
<path d="M27.2139 229.055L41.3273 200.22L87.7915 222.903L73.678 251.738L27.2139 229.055Z" fill="url(#paint0_linear)"/>
<path d="M41.3295 200.445L55.4429 171.61L101.907 194.293L87.7936 223.128L41.3295 200.445Z" fill="#505F98"/>
<path d="M41.3295 200.445L55.4429 171.61L101.907 194.293L87.7936 223.128L41.3295 200.445Z" fill="url(#paint1_linear)"/>
<path d="M55.4261 171.826L69.5396 142.991L116.004 165.674L101.89 194.509L55.4261 171.826Z" fill="#505F98"/>
<path d="M55.4261 171.826L69.5396 142.991L116.004 165.674L101.89 194.509L55.4261 171.826Z" fill="url(#paint2_linear)"/>
<path d="M69.5625 143.237L83.676 114.402L130.14 137.085L116.027 165.92L69.5625 143.237Z" fill="#505F98"/>
<path d="M69.5625 143.237L83.676 114.402L130.14 137.085L116.027 165.92L69.5625 143.237Z" fill="url(#paint3_linear)"/>
<path d="M83.6685 114.599L97.7819 85.7644L144.246 108.447L130.133 137.282L83.6685 114.599Z" fill="#505F98"/>
<path d="M97.7839 86.0103L111.897 57.1754L158.362 79.8578L144.248 108.693L97.7839 86.0103Z" fill="#505F98"/>
<path d="M111.881 57.3912L125.994 28.5563L172.458 51.2387L158.345 80.0736L111.881 57.3912Z" fill="#505F98"/>
<path d="M96.1959 89.5983L110.309 60.7633L156.774 83.4457L142.66 112.281L96.1959 89.5983Z" fill="url(#paint4_linear)"/>
<path d="M110.321 60.9695L124.434 32.1346L170.898 54.817L156.785 83.6519L110.321 60.9695Z" fill="url(#paint5_linear)"/>
<path d="M22.6729 210.827L227.801 46.2928L275.914 106.118L70.7853 270.652L22.6729 210.827Z" fill="white"/>
<path d="M51.3965 215.455L76.464 195.235L109.046 235.522L83.9789 255.742L51.3965 215.455Z" fill="#505F98"/>
<path d="M51.3965 215.455L76.464 195.235L109.046 235.522L83.9789 255.742L51.3965 215.455Z" fill="url(#paint6_linear)"/>
<path d="M75.0144 195.689L100.047 175.56L132.481 215.79L107.449 235.919L75.0144 195.689Z" fill="#505F98"/>
<path d="M75.0144 195.689L100.047 175.56L132.481 215.79L107.449 235.919L75.0144 195.689Z" fill="url(#paint7_linear)"/>
<path d="M99.9583 175.761L124.99 155.633L157.425 195.863L132.393 215.991L99.9583 175.761Z" fill="#505F98"/>
<path d="M99.9583 175.761L124.99 155.633L157.425 195.863L132.393 215.991L99.9583 175.761Z" fill="url(#paint8_linear)"/>
<path d="M124.886 155.847L149.918 135.718L182.353 175.948L157.321 196.077L124.886 155.847Z" fill="#505F98"/>
<path d="M124.886 155.847L149.918 135.718L182.353 175.948L157.321 196.077L124.886 155.847Z" fill="url(#paint9_linear)"/>
<path d="M151.006 135.389L176.073 115.169L208.656 155.456L183.588 175.677L151.006 135.389Z" fill="#505F98"/>
<path d="M176.086 114.99L201.154 94.7701L233.736 135.057L208.668 155.277L176.086 114.99Z" fill="#505F98"/>
<path d="M199.693 96.0512L224.726 75.9226L257.161 116.153L232.128 136.281L199.693 96.0512Z" fill="#505F98"/>
<path d="M229.712 139.218L208.613 156L176.675 115.782L197.774 99L229.712 139.218Z" fill="url(#paint10_linear)"/>
<path d="M196.736 98.6476L221.768 78.519L254.203 118.749L229.171 138.878L196.736 98.6476Z" fill="url(#paint11_linear)"/>
<path d="M145.653 220.15V343H124.639V220.15C124.639 215.61 127.457 211.57 131.657 210.089V197.825C131.657 195.712 133.333 194 135.4 194C137.468 194 139.144 195.712 139.144 197.825V210.297C143.063 211.935 145.632 215.823 145.653 220.15Z" fill="#505F98"/>
<path d="M145.653 220.15V343H124.639V220.15C124.639 215.61 127.457 211.57 131.657 210.089V197.825C131.657 195.712 133.333 194 135.4 194C137.468 194 139.144 195.712 139.144 197.825V210.297C143.063 211.935 145.632 215.823 145.653 220.15Z" fill="url(#paint12_linear)"/>
<rect x="111.63" y="298" width="50.0346" height="9" rx="2.245" fill="#505F98"/>
<path d="M136.336 380C127.763 380 120.636 367.185 120.636 358.634V302H151.658V358.634C151.658 367.185 144.887 380 136.336 380Z" fill="#505F98"/>
<rect x="111.63" y="298" width="50.0346" height="9" rx="2.245" fill="url(#paint13_linear)"/>
<path d="M136.336 381C127.763 381 120.636 368.366 120.636 359.937V308H151.658V359.937C151.658 368.366 144.887 381 136.336 381Z" fill="url(#paint14_linear)"/>
<defs>
<linearGradient id="paint0_linear" x1="151.402" y1="296.166" x2="216.156" y2="167.6" gradientUnits="userSpaceOnUse">
<stop stop-color="#010101" stop-opacity="0.01"/>
<stop offset="0.95" stop-color="#010101"/>
</linearGradient>
<linearGradient id="paint1_linear" x1="206.563" y1="292.365" x2="299.417" y2="110.775" gradientUnits="userSpaceOnUse">
<stop stop-color="#010101" stop-opacity="0.01"/>
<stop offset="0.95" stop-color="#010101"/>
</linearGradient>
<linearGradient id="paint2_linear" x1="326.545" y1="301.092" x2="463.899" y2="-9.05183" gradientUnits="userSpaceOnUse">
<stop stop-color="#010101" stop-opacity="0.01"/>
<stop offset="0.95" stop-color="#010101"/>
</linearGradient>
<linearGradient id="paint3_linear" x1="454.379" y1="317.583" x2="659.309" y2="-129.821" gradientUnits="userSpaceOnUse">
<stop stop-color="#010101" stop-opacity="0.01"/>
<stop offset="0.36" stop-color="#010101" stop-opacity="0.36"/>
<stop offset="0.95" stop-color="#010101"/>
</linearGradient>
<linearGradient id="paint4_linear" x1="305.726" y1="212.564" x2="422.886" y2="-29.0312" gradientUnits="userSpaceOnUse">
<stop stop-color="white" stop-opacity="0.01"/>
<stop offset="0.07" stop-color="white" stop-opacity="0.22"/>
<stop offset="0.16" stop-color="white" stop-opacity="0.45"/>
<stop offset="0.25" stop-color="white" stop-opacity="0.65"/>
<stop offset="0.33" stop-color="white" stop-opacity="0.8"/>
<stop offset="0.4" stop-color="white" stop-opacity="0.91"/>
<stop offset="0.46" stop-color="white" stop-opacity="0.98"/>
<stop offset="0.51" stop-color="white"/>
</linearGradient>
<linearGradient id="paint5_linear" x1="227.65" y1="159.444" x2="291.846" y2="23.5549" gradientUnits="userSpaceOnUse">
<stop stop-color="white" stop-opacity="0.01"/>
<stop offset="0.07" stop-color="white" stop-opacity="0.22"/>
<stop offset="0.16" stop-color="white" stop-opacity="0.45"/>
<stop offset="0.25" stop-color="white" stop-opacity="0.65"/>
<stop offset="0.33" stop-color="white" stop-opacity="0.8"/>
<stop offset="0.4" stop-color="white" stop-opacity="0.91"/>
<stop offset="0.46" stop-color="white" stop-opacity="0.98"/>
<stop offset="0.51" stop-color="white"/>
</linearGradient>
<linearGradient id="paint6_linear" x1="135.737" y1="329.052" x2="249.168" y2="239.635" gradientUnits="userSpaceOnUse">
<stop stop-color="#010101" stop-opacity="0.01"/>
<stop offset="0.95" stop-color="#010101"/>
</linearGradient>
<linearGradient id="paint7_linear" x1="185.575" y1="348.988" x2="346.852" y2="223.867" gradientUnits="userSpaceOnUse">
<stop stop-color="#010101" stop-opacity="0.01"/>
<stop offset="0.95" stop-color="#010101"/>
</linearGradient>
<linearGradient id="paint8_linear" x1="290.519" y1="407.751" x2="546.684" y2="185.028" gradientUnits="userSpaceOnUse">
<stop stop-color="#010101" stop-opacity="0.01"/>
<stop offset="0.95" stop-color="#010101"/>
</linearGradient>
<linearGradient id="paint9_linear" x1="399.279" y1="476.865" x2="774.962" y2="158.45" gradientUnits="userSpaceOnUse">
<stop stop-color="#010101" stop-opacity="0.01"/>
<stop offset="0.36" stop-color="#010101" stop-opacity="0.36"/>
<stop offset="0.95" stop-color="#010101"/>
</linearGradient>
<linearGradient id="paint10_linear" x1="247.537" y1="239.751" x2="430.477" y2="108.322" gradientUnits="userSpaceOnUse">
<stop stop-color="white" stop-opacity="0.01"/>
<stop offset="0.07" stop-color="white" stop-opacity="0.22"/>
<stop offset="0.16" stop-color="white" stop-opacity="0.45"/>
<stop offset="0.25" stop-color="white" stop-opacity="0.65"/>
<stop offset="0.33" stop-color="white" stop-opacity="0.8"/>
<stop offset="0.4" stop-color="white" stop-opacity="0.91"/>
<stop offset="0.46" stop-color="white" stop-opacity="0.98"/>
<stop offset="0.51" stop-color="white"/>
</linearGradient>
<linearGradient id="paint11_linear" x1="261.151" y1="237.517" x2="377.009" y2="141.658" gradientUnits="userSpaceOnUse">
<stop stop-color="white" stop-opacity="0.01"/>
<stop offset="0.07" stop-color="white" stop-opacity="0.22"/>
<stop offset="0.16" stop-color="white" stop-opacity="0.45"/>
<stop offset="0.25" stop-color="white" stop-opacity="0.65"/>
<stop offset="0.33" stop-color="white" stop-opacity="0.8"/>
<stop offset="0.4" stop-color="white" stop-opacity="0.91"/>
<stop offset="0.46" stop-color="white" stop-opacity="0.98"/>
<stop offset="0.51" stop-color="white"/>
</linearGradient>
<linearGradient id="paint12_linear" x1="126.738" y1="403.745" x2="164.923" y2="403.767" gradientUnits="userSpaceOnUse">
<stop stop-color="white" stop-opacity="0.01"/>
<stop offset="0.07" stop-color="white" stop-opacity="0.22"/>
<stop offset="0.16" stop-color="white" stop-opacity="0.45"/>
<stop offset="0.25" stop-color="white" stop-opacity="0.65"/>
<stop offset="0.33" stop-color="white" stop-opacity="0.8"/>
<stop offset="0.4" stop-color="white" stop-opacity="0.91"/>
<stop offset="0.46" stop-color="white" stop-opacity="0.98"/>
<stop offset="0.51" stop-color="white"/>
</linearGradient>
<linearGradient id="paint13_linear" x1="53.4458" y1="306.2" x2="65.0971" y2="344.932" gradientUnits="userSpaceOnUse">
<stop stop-color="#010101" stop-opacity="0.01"/>
<stop offset="0.95" stop-color="#010101"/>
</linearGradient>
<linearGradient id="paint14_linear" x1="78.2439" y1="455.933" x2="179.146" y2="457.976" gradientUnits="userSpaceOnUse">
<stop stop-color="#010101" stop-opacity="0.01"/>
<stop offset="0.95" stop-color="#010101"/>
</linearGradient>
</defs>
</svg>
