<svg width="221" height="143" viewBox="0 0 221 143" fill="none" xmlns="http://www.w3.org/2000/svg">
<path fill-rule="evenodd" clip-rule="evenodd" d="M144.945 59.2411V79.7145L132.235 79.8193C130.999 89.3456 127.375 98.4104 121.697 106.181L132.552 117.351L117.672 131.6L106.986 120.578C100.397 125.062 92.9616 128.17 85.1295 129.714V143H64.5589V130.029C55.7744 128.76 47.4017 125.497 40.0891 120.494L31.1527 129.316L16.5888 114.647L25.462 105.993C19.8756 98.2193 16.313 89.191 15.0924 79.7145H0.844727V59.2411H15.5983C17.4272 51.0933 21.0238 43.4409 26.1365 36.8187L17.8956 28.3318L32.7756 14.0821L41.2062 22.8205C48.1765 18.2143 56.1005 15.2276 64.3903 14.0821V0H84.9609V14.3964C93.3296 16.0545 101.239 19.493 108.145 24.476L118.683 14.1659L133.163 28.709L122.625 39.1867C126.756 45.2671 129.689 52.0725 131.266 59.2411H144.945ZM38.8035 72.1496C38.7802 91.211 54.3028 106.682 73.4742 106.705C82.6858 106.733 91.5294 103.113 98.0509 96.6445C104.572 90.1762 108.235 81.3922 108.229 72.2334C108.253 53.1721 92.7299 37.7011 73.5585 37.678C54.3871 37.6548 38.8268 53.0883 38.8035 72.1496Z" fill="#505F98"/>
<path fill-rule="evenodd" clip-rule="evenodd" d="M220.997 93.3542L220.079 105.396L212.566 104.938C211.44 110.475 208.935 115.641 205.283 119.958L211.147 127.021L201.798 134.729L196.039 127.792C191.984 130.13 187.498 131.625 182.85 132.188L182.245 140L170.204 139.104L170.788 131.479C165.703 130.344 160.947 128.056 156.89 124.792L151.256 129.583L143.388 120.396L148.96 115.688C146.032 110.876 144.346 105.414 144.056 99.7917L135.938 99.1667L136.836 87.1458L145.454 87.7917C146.878 83.0854 149.305 78.7428 152.57 75.0625L148.125 69.7083L157.474 62L162.003 67.5C166.274 65.095 171.029 63.6715 175.922 63.3333L176.548 55L188.589 55.8958L187.942 64.375C192.749 65.7138 197.207 68.0811 201.005 71.3125L207.621 65.7083L215.467 74.8958L208.789 80.5833C210.956 84.3387 212.373 88.4774 212.963 92.7708L220.997 93.3542ZM158.3 96.2429C157.445 107.436 165.837 117.203 177.049 118.062C182.443 118.487 187.784 116.747 191.889 113.228C195.994 109.708 198.524 104.7 198.919 99.3125C199.761 88.1186 191.358 78.3609 180.146 77.5136C168.934 76.6662 159.155 85.05 158.3 96.2429Z" fill="#505F98"/>
</svg>
